<?xml version="1.0" encoding="UTF-8" standalone="no"?>
<svg
   xmlns:dc="http://purl.org/dc/elements/1.1/"
   xmlns:cc="http://creativecommons.org/ns#"
   xmlns:rdf="http://www.w3.org/1999/02/22-rdf-syntax-ns#"
   xmlns:svg="http://www.w3.org/2000/svg"
   xmlns="http://www.w3.org/2000/svg"
   viewBox="0 0 345.50668 284.94666"
   height="284.94666"
   width="345.50668"
   xml:space="preserve"
   id="svg2"
   version="1.1"><metadata
     id="metadata8"><rdf:RDF><cc:Work
         rdf:about=""><dc:format>image/svg+xml</dc:format><dc:type
           rdf:resource="http://purl.org/dc/dcmitype/StillImage" /></cc:Work></rdf:RDF></metadata><defs
     id="defs6" /><g
     transform="matrix(1.3333333,0,0,-1.3333333,0,284.94667)"
     id="g10"><g
       transform="scale(0.1)"
       id="g12"><path
         id="path14"
         style="fill:#00674c;fill-opacity:1;fill-rule:nonzero;stroke:none"
         d="m 52.6875,1614.3 c 5.3906,30.8 33.2617,68.12 73.6445,75.31 2.234,0.41 41.719,2.01 94.758,4.48 96.648,4.5 238.433,11.86 283.004,20.13 0,0 -12.672,64 22.09,116.6 0,0 62.511,42.46 178.086,69.71 0,0 165.265,40.4 292.636,14.52 -68.75,19.66 -140.136,23.06 -176.347,23.35 -29.129,-0.14 -60.899,-2.06 -94.676,-6.78 l -6.789,-1.35 c 22.715,42.23 78.82,122.35 187.187,147.15 0,0 166.229,40.82 283.909,-125.92 0,0 119.57,24.93 249.51,9.46 l -42.46,-48.36 c 0,0 50.55,-3.3 127.19,-22.11 l -2.5,-1.8 c -20.07,-13.95 -36.98,-29.4 -51.31,-45.39 0.08,-0.02 0.16,-0.04 0.23,-0.06 l -3.84,-4.24 c -0.43,-0.48 -0.84,-0.98 -1.25,-1.47 -0.41,-0.49 -0.82,-0.97 -1.23,-1.44 -0.31,-0.41 -0.57,-0.8 -0.88,-1.21 -0.02,-0.02 -0.04,-0.04 -0.06,-0.08 -3.44,-4.49 -6.76,-8.96 -9.87,-13.35 -0.02,-0.04 -0.03,-0.07 -0.06,-0.1 -50.8,-71.95 -57.65,-128.73 -58.47,-138.28 62.15,139.74 169.88,196.6 169.88,196.6 0,0 186.21,107.44 357.2,-30.76 120.67,-97.56 77.27,-298.11 77.27,-298.11 0.3,0.63 0.52,1.21 0.81,1.84 0.29,1.07 0.6,2.08 0.87,3.16 0,0 1.63,2.84 4.07,8.1 8.24,19.33 14.12,37.36 18.09,53.71 0.25,1.06 0.5,2.1 0.73,3.18 0.42,1.75 0.74,3.41 1.1,5.12 1.76,8.47 3.32,17.57 4.54,27.35 4.61,40.41 -1.84,64.49 -1.84,64.49 320.45,-130.58 407.12,-223.2 407.12,-223.2 l -114.24,-30.6 c 57.58,-49.36 112.39,-208.99 112.39,-208.99 l -156.2,49.36 c 17.89,-32.39 35.81,-95.86 35.81,-95.86 l -101.46,29.8 c 56.69,-89.55 10.6,-231.64 10.6,-231.64 C 2005.14,482.109 1232.67,70.9219 1232.67,70.9219 685.875,350.469 455.656,720.961 455.656,720.961 c 56.067,-3.34 120.434,1.559 192.364,20.559 l -11.981,12.992 c 77.793,13.5 179.375,58.008 179.375,58.008 48.965,-23.54 101.711,-80.508 101.711,-80.508 l 14.684,24.117 c 28.703,-18.43 81.971,-76.809 81.971,-76.809 -33.71,81.27 -93.124,127.282 -93.124,127.282 -3.711,-17.153 -15.019,-34.672 -15.019,-34.672 -63.535,92 -139.727,106.289 -139.727,106.289 l 18.77,-34.387 C 685.824,795.391 563.938,771.82 563.938,771.82 l 17.863,-17.5 C 122.738,733.949 187.277,989.82 187.277,989.82 l 5.743,18.4 38.808,-17.458 c 0,0 -5.515,51.098 40.52,100.898 0,0 19.406,28.18 32.16,-6.99 0,0 4.785,-13.95 9.363,-22.44 0,0 13.477,12.87 42.703,23.24 0,0 -30.019,28.77 -47.281,97.52 0,0 -8.52,7.65 -15.102,16.74 0,0 -11.933,-4.71 -22.761,-3.93 0,0 -10.633,8.18 -13.899,18.18 l -7.91,-3.16 c 0,0 -3.406,-24.49 -1.949,-63.01 0,0 2.723,-13.36 -9.27,-16.68 0,0 -8.488,-5.25 -29.738,11.9 0,0 -74.742,60.52 -58.516,159.9 0,0 -48.847,-7.25 -68.3082,67.01 0,0 -23.8007,77.91 -25.2656,153.48 -0.5078,29.08 5.625,46.89 5.625,46.89 -14.2383,6.49 -10.9844,34.49 -9.8242,42.05 0.1758,1.21 0.3125,1.94 0.3125,1.94 z M 2545.07,1462.36 c -144.89,165.3 -528.09,318.56 -528.09,318.56 -21.81,60.31 -72.08,102.26 -72.08,102.26 -160.87,145.47 -378.55,38.23 -378.55,38.23 -36.77,10.39 -102.61,20.25 -102.61,20.25 l 29.66,46.19 c -128.92,27.13 -290.95,-4.41 -290.95,-4.41 -117.17,158.96 -290.524,125.78 -290.524,125.78 -163.055,-29.55 -227.371,-185.08 -227.371,-185.08 -109.309,-27.73 -181.672,-68.96 -181.672,-68.96 -41.27,-55.36 -34.168,-116.16 -34.168,-116.16 -54.309,-13.43 -287.695,-20.52 -324.129,-24.33 -19.707,-2.05 -37.309,-5.1 -47.2188,-9.79 -61.8555,-29.33 -70.5469,-93.04 -70.5469,-93.04 0,0 -6.4648,-29.4 5.457,-46.57 0,0 -3.5546,-28.69 -2.7148,-47.28 4.2188,-93.81 27.5117,-166.62 27.5117,-166.62 19.4727,-67.84 59.7738,-76.53 59.7738,-76.53 10.695,-150.86 117.441,-176.09 117.441,-176.09 -19.461,-22.83 -28.055,-55.39 -28.055,-55.39 l -30.703,11.82 c -66.965,-117.989 8.77,-214.79 8.77,-214.79 C 248.883,753.18 402.199,723.219 402.199,723.219 732.883,240.289 1233.04,27.6016 1233.04,27.6016 c 582.51,300.4294 901.39,736.7574 901.39,736.7574 44.53,56.379 77.84,111.871 104.06,163.391 74.3,146.39 44.45,238.91 44.45,238.91 l 83.58,-29.84 c 0,41.77 -14.94,101.44 -14.94,101.44 l 136.45,-40.84 c 10.31,99.2 -75.39,233.89 -75.39,233.89 l 132.43,31.05" /><path
         id="path16"
         style="fill:#231f20;fill-opacity:1;fill-rule:nonzero;stroke:none"
         d="m 1807.88,1808.5 c 0,0 225.86,-67.76 30.14,-403.48 0,0 71.86,3.42 122.29,65.61 7.46,9.58 16.83,23.43 25.37,41.54 0.43,0.97 0.81,2.03 1.27,2.97 5.04,11.08 9.72,23.55 13.4,37.5 -0.29,-0.63 -0.51,-1.21 -0.81,-1.84 0,0 43.4,200.55 -77.27,298.11 -170.99,138.2 -357.2,30.76 -357.2,30.76 0,0 -107.73,-56.86 -169.88,-196.6 -0.08,-0.94 -0.12,-1.59 -0.12,-1.59 0,0 228.66,179.05 412.81,127.02" /><path
         id="path18"
         style="fill:#231f20;fill-opacity:1;fill-rule:nonzero;stroke:none"
         d="m 192.238,1307.91 c 3.242,6.19 20.95,8.05 35.657,-3.53 46.914,-36.98 171.953,-107.27 394.89,-45.61 0,0 -6.836,-21.33 -15.019,-24.53 0,0 -6.414,-3.87 -22.489,7.17 0,0 -3.437,-12.68 -14.589,-19.57 0,0 -7.239,-2.76 -22.004,12.34 0,0 -4.137,-13.52 -17.262,-22.21 0,0 -6.504,-0.15 -22.199,12.56 0,0 -5.871,-12.38 -16.114,-21.01 0,0 -7.218,-2.35 -23.105,14.82 0,0 -10.149,-18.61 -20.371,-20.68 0,0 -11.875,-1 -21.25,15.76 0,0 -27.492,-35.47 -32.031,-102.79 0,0 0.789,-15.4 -12.961,1.83 0,0 -34.317,47.34 -39.403,113.15 0,0 -9.953,-5.14 -16.543,-7.07 0,0 -12.492,3.9 -17.453,19.55 0,0 -11.433,-7.27 -21.719,-6.31 0,0 -6.96,5.76 -11.796,19.86 0,0 -12.606,-4.3 -19.735,-4.12 0,0 -9.894,12.21 -12.781,27.95 0,0 -21.742,-24.73 -18.695,-90.67 0,0 2.738,-21.83 -7.813,-7.07 0,0 -49.726,83.4 -25.215,130.18 z m 589.555,-97.93 C 662.609,1192.73 596.02,1070.74 596.02,1070.74 c -34.875,-65.66 -77.883,-70.29 -77.883,-70.29 -42.52,-10.528 -62.246,22.71 -62.246,22.71 -15.555,27.21 -25.45,24.75 -25.45,24.75 -25.593,0.68 -36.445,-55.25 -36.445,-55.25 -82.605,3.199 -61.875,45.86 -61.875,45.86 9.317,16.87 47.883,23.59 47.883,23.59 71.672,20.25 156.133,105.82 156.133,105.82 68.269,63.65 138.203,68.46 138.203,68.46 76.277,8.79 107.453,-26.41 107.453,-26.41 z m -2.766,-42.42 C 754.262,1114 601.77,1006.52 601.77,1006.52 l -26.7,-17.551 c 28.438,28.431 65.09,88.861 65.09,88.861 l 19.981,7.56 c 0.437,27.33 8.75,35.86 8.75,35.86 17.863,4.8 38.992,4.34 38.992,4.34 -1.992,23.77 4.512,33.18 4.512,33.18 12.121,4.92 27.121,6.17 27.121,6.17 14.074,2.11 35.554,18.54 35.554,18.54 14.336,5.39 3.957,-15.92 3.957,-15.92 z M 407.855,919.551 c -71.3,-10.063 -137.089,49.379 -137.089,49.379 -12.864,31.17 -0.188,65.09 -0.188,65.09 6.485,20.16 13.438,18.44 13.438,18.44 3.515,-0.58 2.304,-10.08 2.304,-10.08 -1.66,-40.82 20.879,-66.11 20.879,-66.11 1.848,8.199 8.731,7.812 8.731,7.812 10.273,-4.062 17.98,-18.613 17.98,-18.613 3.106,13.961 12.578,9.472 12.578,9.472 10.559,-4.043 22.168,-19.902 22.168,-19.902 6.59,13.012 15.891,11.992 15.891,11.992 8.863,-0.25 25.68,-15.902 25.68,-15.902 -1.375,28.172 12.98,60.281 12.98,60.281 6.219,16.29 11.777,0.27 11.777,0.27 1.993,-5.47 5.782,-11.62 5.782,-11.62 21.843,-34.181 72.148,-40.65 72.148,-40.65 C 435.109,921 407.855,919.551 407.855,919.551 Z M 1231.3,288.648 C 1842.04,594.98 2157.01,964.879 2157.01,964.879 1791.8,384.84 1240.58,123.012 1231.52,118.75 v -0.211 l -0.22,0.09 -0.21,-0.09 v 0.211 c -9.01,4.262 -378.481,183.199 -714.211,569.879 l 76.98,8.152 C 746.715,573.59 959.816,424.82 1231.3,288.648 Z M 793.508,1545.72 c -31.582,-2.17 -37.774,35.53 -37.774,35.53 42.961,-3.48 87.141,4.73 87.141,4.73 -14.285,-38.97 -49.367,-40.26 -49.367,-40.26 z m -731.3088,24.59 c 0,0 -6.1328,-17.81 -5.625,-46.89 1.4649,-75.57 25.2656,-153.48 25.2656,-153.48 19.4612,-74.26 68.3082,-67.01 68.3082,-67.01 -16.226,-99.38 58.516,-159.9 58.516,-159.9 21.25,-17.15 29.738,-11.9 29.738,-11.9 11.993,3.32 9.27,16.68 9.27,16.68 -1.457,38.52 1.949,63.01 1.949,63.01 l 7.91,3.16 c 3.266,-10 13.899,-18.18 13.899,-18.18 10.828,-0.78 22.761,3.93 22.761,3.93 6.582,-9.09 15.102,-16.74 15.102,-16.74 17.262,-68.75 47.281,-97.52 47.281,-97.52 -29.226,-10.37 -42.703,-23.24 -42.703,-23.24 -4.578,8.49 -9.363,22.44 -9.363,22.44 -12.754,35.17 -32.16,6.99 -32.16,6.99 -46.035,-49.8 -40.52,-100.898 -40.52,-100.898 l -38.808,17.458 -5.743,-18.4 c 0,0 -64.539,-255.871 394.524,-235.5 l -17.863,17.5 c 0,0 121.886,23.571 220.742,72.012 l -18.77,34.387 c 0,0 76.192,-14.289 139.727,-106.289 0,0 11.308,17.519 15.019,34.672 0,0 59.414,-46.012 93.124,-127.282 0,0 -53.268,58.379 -81.971,76.809 l -14.684,-24.117 c 0,0 -52.746,56.968 -101.711,80.508 0,0 -101.582,-44.508 -179.375,-58.008 L 648.02,741.52 c -71.93,-19 -136.297,-23.899 -192.364,-20.559 0,0 230.219,-370.492 777.014,-650.0391 0,0 772.47,411.1871 989.26,935.6981 0,0 46.09,142.09 -10.6,231.64 l 101.46,-29.8 c 0,0 -17.92,63.47 -35.81,95.86 l 156.2,-49.36 c 0,0 -54.81,159.63 -112.39,208.99 l 114.24,30.6 c 0,0 -86.67,92.62 -407.12,223.2 0,0 6.45,-24.08 1.84,-64.49 0.06,0.47 0.13,0.9 0.19,1.37 0,0 84.78,-25.31 265.7,-140.39 l -89.79,-22.46 c 0,0 93.22,-73.13 120.61,-133.42 0,0 -72.37,39.82 -181.8,54.75 35.51,-34.85 67.61,-75.22 83.45,-118.01 l -103.33,29.78 c 0,0 73.67,-80.27 42.22,-214.53 l -49.43,61.84 c 0,0 -13.41,-156.1 -121.76,-335.69 0,0 -8.02,58.539 -27.53,114.59 -120.2,-298.43 -551.96,-430.66 -551.96,-430.66 272.04,180.25 394.24,379.371 447.85,504.65 35.1,93.83 60.58,213.01 52.36,354.47 0,0 -135.17,-330.35 -262.96,-411.03 l 48.87,5.742 c 0,0 -68.22,-102.09 -196.16,-179.774 0,0 14.8,10 12.86,102.172 l -209.09,-80.57 c 0,0 187.46,181.14 233.69,306.23 l -91.62,-11.09 c 0,0 135.63,50.41 250.61,253.38 0,0 -166.66,-101.27 -321.59,-134.3 0,0 43.95,39.28 72.61,77.7 0,0 -118.37,-44.61 -258.21,-29.85 -139.73,14.73 -16.53,66.2 32.12,124.2 l -49.72,3.34 c 0,0 16.97,64.48 63,122.33 l -36.67,-4.07 39.01,73.83 c 0,0 -132.06,-97.36 -277.905,-127.87 0,0 53.375,35.72 70.245,65.37 l -56.878,-9.24 c 0,0 70.878,53.03 95.318,93.33 0,0 -118.326,-47.47 -221.333,-75.61 0,0 72.578,74.92 84.64,116.58 0,0 -192.09,-58.34 -304.629,-32.83 0,0 215.125,-106.58 136.621,-282.99 0,0 18.094,7.15 89.934,-34.04 0,0 77.254,-139.22 -171.289,-353.58 0,0 38.199,13.891 108.211,25.141 l -23.43,10.508 c 0,0 204.61,49.821 352.565,-13.93 0,0 56.57,-22.5 79.46,-66.359 0,0 -56.92,10.25 -119.65,14.019 0,0 90.39,-42.187 151.42,-146.449 l -71.3,11.492 c 0,0 47.03,-74.32 28.12,-235.184 0,0 -68.24,180.711 -158.86,264.942 l -6.2,-55.719 c 0,0 -66.813,97.828 -139.977,143.027 l 3.02,-55.179 c 0,0 -51.781,66.863 -127.582,85.281 0,0 -90.957,-23.379 -153.66,-57.559 l 80.839,-17.089 c 0,0 -157.968,-33.223 -235.089,-28.211 l 45.078,-37.481 c 0,0 -243.145,-14.269 -271.641,152.192 0,0 54.492,-60.082 148.508,-68.051 0,0 64.109,-8.672 176.531,58.289 0,0 333.508,199.68 273.418,341.5 0,0 -30.633,29.24 -148.808,17.17 0,0 -61.336,-8.03 -118.797,-19.59 0,0 -202.637,-49.75 -273.946,73.92 0,0 -19.804,37.78 9.793,80.14 0,0 70.196,106.19 23.243,159.81 0,0 -13.446,23.53 -65.309,26.23 0,0 -38.559,1.17 -66.82,13.94 0,0 -30.594,12.56 -51.746,-0.74 2.941,-0.39 10.281,-4.42 28.847,-22.31 0,0 15.164,-17.5 62.071,-14.08 0,0 56.843,5.61 68.066,-34.08 0,0 10.32,-33.63 -7.609,-46.72 0,0 -54.18,-28.65 -57.305,4.45 0,0 2.305,26.29 -3.692,39.36 0,0 -6.023,18.03 -25.039,18.67 -3.711,0.14 -18.386,-3.85 -23.671,-18.67 -4.61,-12.95 -11.512,-42.17 -3.985,-75.06 0,0 6.152,-41.07 76.086,-8.63 0,0 18.016,7.91 27.234,15.64 0,0 1.899,-65.33 -50.515,-69.33 0,0 -31.524,-4.42 -48.02,15.95 -2.851,3.5 -17.226,20.02 -31.64,16.94 0,0 -20.118,-1.23 -15.399,-37.25 0,0 1.055,-44.3 39.055,-61.89 0,0 -37.27,-31.21 -56.02,21.03 0,0 -22.109,58.11 -24.8629,138.95 -0.5078,14.37 4.1211,3.01 4.1211,3.01 4.4141,-13.38 11.1838,-21.14 16.8668,-24.63 3.875,-2.33 9.563,-0.2 14.192,5.48 7.246,8.72 12.633,26.74 13.101,28.23 6.645,20.82 8.633,45.33 7.168,57.79 -0.722,6.72 -3.672,13.18 -5.879,14.98 -6.367,5.12 -20.546,11.68 -35.683,-21.01 -0.399,-0.86 -0.836,-2 -2.07,-1.14 -11.895,8.91 -6.6802,26.86 -6.6802,26.86 3.9649,13.77 10.6442,29.22 27.6092,42.73 2.18,1.78 13.543,7.01 24.735,7.01 7.539,-0.02 315.703,6.31 424.511,17.86 0,0 -45.879,36.23 -6.297,118.3 0,0 126.973,76.6 349.071,80.47 0,0 -42.852,-21.82 -53.895,-63.38 0,0 174.953,100.04 461.883,109.12 l -56.31,-45.55 c 0,0 46.3,8.64 178.21,-22.21 l -0.01,0.02 3.39,4.06 7.65,-6.7 c 5.2,-1.26 10.49,-2.56 15.94,-3.94 14.33,15.99 31.24,31.44 51.31,45.39 l 2.5,1.8 c -76.64,18.81 -127.19,22.11 -127.19,22.11 l 42.46,48.36 c -129.94,15.47 -249.51,-9.46 -249.51,-9.46 -117.68,166.74 -283.909,125.92 -283.909,125.92 -108.367,-24.8 -164.472,-104.92 -187.187,-147.15 l 6.789,1.35 c 33.777,4.72 65.547,6.64 94.676,6.78 -15.176,0.13 -24.219,-0.29 -24.219,-0.29 159.68,210.44 305.19,-3.34 305.19,-3.34 -54.63,-7.5 -113.987,-31.35 -113.987,-31.35 l 9.465,11.6 -0.102,0.03 c -127.371,25.88 -292.636,-14.52 -292.636,-14.52 -115.575,-27.25 -178.086,-69.71 -178.086,-69.71 -34.762,-52.6 -22.09,-116.6 -22.09,-116.6 -44.571,-8.27 -186.356,-15.63 -283.004,-20.13 -34.223,-1.73 -63.711,-3.2 -73.91,-4.27 -26.875,-2.8 -36.317,-6.19 -39.129,-7.52 -41.1447,-19.51 -52.9026,-57.79 -55.676,-69.94 -1.1602,-7.56 -4.4141,-35.56 9.8242,-42.05" /><path
         id="path20"
         style="fill:#231f20;fill-opacity:1;fill-rule:nonzero;stroke:none"
         d="m 1447.03,1853.94 -3.39,-4.06 0.01,-0.02 c 3.59,-0.84 7.29,-1.72 11.03,-2.62 l -7.65,6.7" /><path
         id="path22"
         style="fill:#231f20;fill-opacity:1;fill-rule:nonzero;stroke:none"
         d="m 108.051,1682.3 c 2.812,1.33 12.254,4.72 39.129,7.52 10.199,1.07 39.687,2.54 73.91,4.27 -53.039,-2.47 -92.524,-4.07 -94.758,-4.48 -40.3828,-7.19 -68.2539,-44.51 -73.6445,-75.31 0,0 -0.1367,-0.73 -0.3125,-1.94 2.7734,12.15 14.5313,50.43 55.676,69.94" /><path
         id="path24"
         style="fill:#231f20;fill-opacity:1;fill-rule:nonzero;stroke:none"
         d="m 2005.29,1563.9 c 4.57,9.76 12.1,28.17 18.09,53.71 -3.97,-16.35 -9.85,-34.38 -18.09,-53.71" /><path
         id="path26"
         style="fill:#ffffff;fill-opacity:1;fill-rule:nonzero;stroke:none"
         d="m 1463.65,1834.88 c 0.31,0.41 0.57,0.8 0.88,1.21 -0.01,-0.02 -0.02,-0.04 -0.04,-0.06 -0.3,-0.39 -0.55,-0.76 -0.84,-1.15" /><path
         id="path28"
         style="fill:#ffffff;fill-opacity:1;fill-rule:nonzero;stroke:none"
         d="m 2488.03,1197.42 -136.45,40.84 c 0,0 14.94,-59.67 14.94,-101.44 l -83.58,29.84 c 0,0 29.85,-92.52 -44.45,-238.91 -26.22,-51.52 -59.53,-107.012 -104.06,-163.391 0,0 -318.88,-436.328 -901.39,-736.7574 0,0 -500.157,212.6874 -830.841,695.6174 0,0 -153.316,29.961 -217.898,117.191 0,0 -75.735,96.801 -8.77,214.79 l 30.703,-11.82 c 0,0 8.594,32.56 28.055,55.39 0,0 -106.746,25.23 -117.441,176.09 0,0 -40.3011,8.69 -59.7738,76.53 0,0 -23.2929,72.81 -27.5117,166.62 -0.8398,18.59 2.7148,47.28 2.7148,47.28 -11.9218,17.17 -5.457,46.57 -5.457,46.57 0,0 8.6914,63.71 70.5469,93.04 9.9098,4.69 27.5118,7.74 47.2188,9.79 36.434,3.81 269.82,10.9 324.129,24.33 0,0 -7.102,60.8 34.168,116.16 0,0 72.363,41.23 181.672,68.96 0,0 64.316,155.53 227.371,185.08 0,0 173.354,33.18 290.524,-125.78 0,0 162.03,31.54 290.95,4.41 l -29.66,-46.19 c 0,0 65.84,-9.86 102.61,-20.25 0,0 217.68,107.24 378.55,-38.23 0,0 50.27,-41.95 72.08,-102.26 0,0 383.2,-153.26 528.09,-318.56 l -132.43,-31.05 c 0,0 85.7,-134.69 75.39,-233.89 z m 103.29,250.11 -27.45,31.32 c -135.61,154.7 -464.37,295.13 -527.54,321.18 -25.36,60.11 -73.23,100.53 -74.67,101.7 -60.73,54.91 -135.26,82.75 -221.51,82.75 -83.09,0 -152.1,-26.3 -175.99,-36.62 -18.21,4.62 -40.35,8.95 -58.87,12.25 l 28.74,44.75 -35.48,7.46 c -36.41,7.66 -78.51,11.54 -125.13,11.54 -70.16,0 -132.48,-8.65 -160.37,-13.2 -87.84,109.64 -200.96,126.44 -261.874,126.44 -25.84,0 -42.168,-2.99 -43.703,-3.28 -149.461,-27.09 -221.297,-149.56 -240.614,-188.46 -104.824,-28.08 -173.39,-66.77 -176.347,-68.47 l -4.543,-2.58 -3.125,-4.19 c -30.477,-40.87 -37.91,-84.26 -39.305,-110.26 -50.519,-7.09 -156.906,-12.43 -224.113,-15.8 -38.203,-1.91 -65.821,-3.29 -77.43,-4.51 -26.094,-2.71 -43.6718,-6.54 -55.3437,-12.06 C 17.4727,1694.68 3.87891,1626.52 2.23047,1616.4 c -1.523439,-7.32 -5.8711,-33.65 4.33594,-56.2 -1.06641,-10.54 -2.61719,-29.15 -1.97266,-43.31 4.31641,-96.03 27.67575,-170.01 28.44535,-172.4 15.1562,-52.8 42.1211,-76.36 60.2851,-86.62 12.0508,-104.24 67.5468,-150.89 103.6408,-170.51 -2.07,-3.96 -3.906,-7.84 -5.527,-11.5 l -27.032,10.4 -10.625,-18.72 C 79.4063,936.488 161.09,829.488 164.215,825.539 224.445,744.18 350.246,709.57 387.211,700.922 718.258,223.281 1218.22,6.74219 1223.26,4.58984 L 1234.07,0 1244.5,5.37891 C 1825.53,305.051 2151.39,745.199 2154.05,748.859 c 40.59,51.403 75.5,106.211 106.73,167.582 47.96,94.509 54.84,168.659 52.71,212.769 l 78.03,-27.86 v 35.47 c 0,20.8 -3.31,45.17 -6.9,65.46 l 125.16,-37.46 3.11,30.02 c 8.11,77.96 -35.98,172.42 -61.72,219.83 l 140.15,32.86" /><path
         id="path30"
         style="fill:#ffffff;fill-opacity:1;fill-rule:nonzero;stroke:none"
         d="m 585.277,1241.41 c 16.075,-11.04 22.489,-7.17 22.489,-7.17 8.183,3.2 15.019,24.53 15.019,24.53 -222.937,-61.66 -347.976,8.63 -394.89,45.61 -14.707,11.58 -32.415,9.72 -35.657,3.53 -24.511,-46.78 25.215,-130.18 25.215,-130.18 10.551,-14.76 7.813,7.07 7.813,7.07 -3.047,65.94 18.695,90.67 18.695,90.67 2.887,-15.74 12.781,-27.95 12.781,-27.95 7.129,-0.18 19.735,4.12 19.735,4.12 4.836,-14.1 11.796,-19.86 11.796,-19.86 10.286,-0.96 21.719,6.31 21.719,6.31 4.961,-15.65 17.453,-19.55 17.453,-19.55 6.59,1.93 16.543,7.07 16.543,7.07 5.086,-65.81 39.403,-113.15 39.403,-113.15 13.75,-17.23 12.961,-1.83 12.961,-1.83 4.539,67.32 32.031,102.79 32.031,102.79 9.375,-16.76 21.25,-15.76 21.25,-15.76 10.222,2.07 20.371,20.68 20.371,20.68 15.887,-17.17 23.105,-14.82 23.105,-14.82 10.243,8.63 16.114,21.01 16.114,21.01 15.695,-12.71 22.199,-12.56 22.199,-12.56 13.125,8.69 17.262,22.21 17.262,22.21 14.765,-15.1 22.004,-12.34 22.004,-12.34 11.152,6.89 14.589,19.57 14.589,19.57" /><path
         id="path32"
         style="fill:#ffffff;fill-opacity:1;fill-rule:nonzero;stroke:none"
         d="m 440.766,1000.06 c 0,0 -3.789,6.15 -5.782,11.62 0,0 -5.558,16.02 -11.777,-0.27 0,0 -14.355,-32.109 -12.98,-60.281 0,0 -16.817,15.652 -25.68,15.902 0,0 -9.301,1.02 -15.891,-11.992 0,0 -11.609,15.859 -22.168,19.902 0,0 -9.472,4.489 -12.578,-9.472 0,0 -7.707,14.551 -17.98,18.613 0,0 -6.883,0.387 -8.731,-7.812 0,0 -22.539,25.29 -20.879,66.11 0,0 1.211,9.5 -2.304,10.08 0,0 -6.953,1.72 -13.438,-18.44 0,0 -12.676,-33.92 0.188,-65.09 0,0 65.789,-59.442 137.089,-49.379 0,0 27.254,1.449 105.059,39.859 0,0 -50.305,6.469 -72.148,40.65" /><path
         id="path34"
         style="fill:#ffffff;fill-opacity:1;fill-rule:nonzero;stroke:none"
         d="m 775.07,1183.48 c 0,0 -21.48,-16.43 -35.554,-18.54 0,0 -15,-1.25 -27.121,-6.17 0,0 -6.504,-9.41 -4.512,-33.18 0,0 -21.129,0.46 -38.992,-4.34 0,0 -8.313,-8.53 -8.75,-35.86 l -19.981,-7.56 c 0,0 -36.652,-60.43 -65.09,-88.861 l 26.7,17.551 c 0,0 152.492,107.48 177.257,161.04 0,0 10.379,21.31 -3.957,15.92" /><path
         id="path36"
         style="fill:#231f20;fill-opacity:1;fill-rule:nonzero;stroke:none"
         d="m 1534.39,1576.8 c 174.41,70.91 244.31,-26.66 244.31,-26.66 47.15,90.15 -7.33,134.84 -7.33,134.84 -119.17,85.04 -265.82,-29.88 -265.82,-29.88 l 47.51,-25.02 -18.67,-53.28" /><path
         id="path38"
         style="fill:#c21b32;fill-opacity:1;fill-rule:nonzero;stroke:none"
         d="m 430.441,1047.91 c 0,0 9.895,2.46 25.45,-24.75 0,0 19.726,-33.238 62.246,-22.71 0,0 43.008,4.63 77.883,70.29 0,0 66.589,121.99 185.773,139.24 0,0 -31.176,35.2 -107.453,26.41 0,0 -69.934,-4.81 -138.203,-68.46 0,0 -84.461,-85.57 -156.133,-105.82 0,0 -38.566,-6.72 -47.883,-23.59 0,0 -20.73,-42.661 61.875,-45.86 0,0 10.852,55.93 36.445,55.25" /><path
         id="path40"
         style="fill:#c21b32;fill-opacity:1;fill-rule:nonzero;stroke:none"
         d="m 820.559,1938.4 c 36.211,-0.29 107.597,-3.69 176.347,-23.35 l 0.102,-0.03 -9.465,-11.6 c 0,0 59.357,23.85 113.987,31.35 0,0 -145.51,213.78 -305.19,3.34 0,0 9.043,0.42 24.219,0.29" /><path
         id="path42"
         style="fill:#c21b32;fill-opacity:1;fill-rule:nonzero;stroke:none"
         d="m 793.508,1545.72 c 0,0 35.082,1.29 49.367,40.26 0,0 -44.18,-8.21 -87.141,-4.73 0,0 6.192,-37.7 37.774,-35.53" /><path
         id="path44"
         style="fill:#c21b32;fill-opacity:1;fill-rule:nonzero;stroke:none"
         d="M 1231.3,288.648 C 959.816,424.82 746.715,573.59 593.859,696.781 l -76.98,-8.152 C 852.609,301.949 1222.08,123.012 1231.09,118.75 v -0.211 l 0.21,0.09 0.22,-0.09 v 0.211 c 9.06,4.262 560.28,266.09 925.49,846.129 0,0 -314.97,-369.899 -925.71,-676.231" /><path
         id="path46"
         style="fill:#c21b32;fill-opacity:1;fill-rule:nonzero;stroke:none"
         d="m 1778.7,1550.14 c 0,0 -69.9,97.57 -244.31,26.66 l 18.67,53.28 -47.51,25.02 c 0,0 146.65,114.92 265.82,29.88 0,0 54.48,-44.69 7.33,-134.84 z m 365.96,-137.03 c 109.43,-14.93 181.8,-54.75 181.8,-54.75 -27.39,60.29 -120.61,133.42 -120.61,133.42 l 89.79,22.46 c -180.92,115.08 -265.7,140.39 -265.7,140.39 -0.06,-0.47 -0.13,-0.9 -0.19,-1.37 -1.22,-9.78 -2.78,-18.88 -4.54,-27.35 -0.36,-1.71 -0.68,-3.37 -1.1,-5.12 -0.23,-1.08 -0.48,-2.12 -0.73,-3.18 -5.99,-25.54 -13.52,-43.95 -18.09,-53.71 -2.44,-5.26 -4.07,-8.1 -4.07,-8.1 -0.27,-1.08 -0.58,-2.09 -0.87,-3.16 -3.68,-13.95 -8.36,-26.42 -13.4,-37.5 -0.46,-0.94 -0.84,-2 -1.27,-2.97 -8.54,-18.11 -17.91,-31.96 -25.37,-41.54 -50.43,-62.19 -122.29,-65.61 -122.29,-65.61 195.72,335.72 -30.14,403.48 -30.14,403.48 -184.15,52.03 -412.81,-127.02 -412.81,-127.02 0,0 0.04,0.65 0.12,1.59 0.82,9.55 7.67,66.33 58.47,138.28 0.03,0.03 0.04,0.06 0.06,0.1 3.11,4.39 6.43,8.85 9.87,13.35 0.02,0.04 0.04,0.06 0.06,0.08 0.29,0.39 0.54,0.76 0.84,1.15 0.02,0.02 0.03,0.04 0.04,0.06 0.41,0.47 0.82,0.95 1.23,1.44 0.41,0.49 0.82,0.99 1.25,1.47 l 3.84,4.24 c -0.07,0.02 -0.15,0.04 -0.23,0.06 -5.45,1.38 -10.74,2.68 -15.94,3.94 -3.74,0.9 -7.44,1.78 -11.03,2.62 -131.91,30.85 -178.21,22.21 -178.21,22.21 l 56.31,45.55 c -286.93,-9.08 -461.883,-109.12 -461.883,-109.12 11.043,41.56 53.895,63.38 53.895,63.38 -222.098,-3.87 -349.071,-80.47 -349.071,-80.47 -39.582,-82.07 6.297,-118.3 6.297,-118.3 -108.808,-11.55 -416.972,-17.88 -424.511,-17.86 -11.192,0 -22.555,-5.23 -24.735,-7.01 -16.965,-13.51 -23.6443,-28.96 -27.6092,-42.73 0,0 -5.2148,-17.95 6.6802,-26.86 1.234,-0.86 1.671,0.28 2.07,1.14 15.137,32.69 29.316,26.13 35.683,21.01 2.207,-1.8 5.157,-8.26 5.879,-14.98 1.465,-12.46 -0.523,-36.97 -7.168,-57.79 -0.468,-1.49 -5.855,-19.51 -13.101,-28.23 -4.629,-5.68 -10.317,-7.81 -14.192,-5.48 -5.683,3.49 -12.4527,11.25 -16.8668,24.63 0,0 -4.6289,11.36 -4.1211,-3.01 2.7539,-80.84 24.8629,-138.95 24.8629,-138.95 18.75,-52.24 56.02,-21.03 56.02,-21.03 -38,17.59 -39.055,61.89 -39.055,61.89 -4.719,36.02 15.399,37.25 15.399,37.25 14.414,3.08 28.789,-13.44 31.64,-16.94 16.496,-20.37 48.02,-15.95 48.02,-15.95 52.414,4 50.515,69.33 50.515,69.33 -9.218,-7.73 -27.234,-15.64 -27.234,-15.64 -69.934,-32.44 -76.086,8.63 -76.086,8.63 -7.527,32.89 -0.625,62.11 3.985,75.06 5.285,14.82 19.96,18.81 23.671,18.67 19.016,-0.64 25.039,-18.67 25.039,-18.67 5.997,-13.07 3.692,-39.36 3.692,-39.36 3.125,-33.1 57.305,-4.45 57.305,-4.45 17.929,13.09 7.609,46.72 7.609,46.72 -11.223,39.69 -68.066,34.08 -68.066,34.08 -46.907,-3.42 -62.071,14.08 -62.071,14.08 -18.566,17.89 -25.906,21.92 -28.847,22.31 21.152,13.3 51.746,0.74 51.746,0.74 28.261,-12.77 66.82,-13.94 66.82,-13.94 51.863,-2.7 65.309,-26.23 65.309,-26.23 46.953,-53.62 -23.243,-159.81 -23.243,-159.81 -29.597,-42.36 -9.793,-80.14 -9.793,-80.14 71.309,-123.67 273.946,-73.92 273.946,-73.92 57.461,11.56 118.797,19.59 118.797,19.59 118.175,12.07 148.808,-17.17 148.808,-17.17 C 887.875,1140.27 554.367,940.59 554.367,940.59 441.945,873.629 377.836,882.301 377.836,882.301 283.82,890.27 229.328,950.352 229.328,950.352 257.824,783.891 500.969,798.16 500.969,798.16 l -45.078,37.481 c 77.121,-5.012 235.089,28.211 235.089,28.211 l -80.839,17.089 c 62.703,34.18 153.66,57.559 153.66,57.559 75.801,-18.418 127.582,-85.281 127.582,-85.281 l -3.02,55.179 C 961.527,863.199 1028.34,765.371 1028.34,765.371 l 6.2,55.719 c 90.62,-84.231 158.86,-264.942 158.86,-264.942 18.91,160.864 -28.12,235.184 -28.12,235.184 l 71.3,-11.492 c -61.03,104.262 -151.42,146.449 -151.42,146.449 62.73,-3.769 119.65,-14.019 119.65,-14.019 -22.89,43.859 -79.46,66.359 -79.46,66.359 -147.955,63.751 -352.565,13.93 -352.565,13.93 l 23.43,-10.508 C 726.203,970.801 688.004,956.91 688.004,956.91 c 248.543,214.36 171.289,353.58 171.289,353.58 -71.84,41.19 -89.934,34.04 -89.934,34.04 78.504,176.41 -136.621,282.99 -136.621,282.99 112.539,-25.51 304.629,32.83 304.629,32.83 -12.062,-41.66 -84.64,-116.58 -84.64,-116.58 103.007,28.14 221.333,75.61 221.333,75.61 -24.44,-40.3 -95.318,-93.33 -95.318,-93.33 l 56.878,9.24 c -16.87,-29.65 -70.245,-65.37 -70.245,-65.37 145.845,30.51 277.905,127.87 277.905,127.87 l -39.01,-73.83 36.67,4.07 c -46.03,-57.85 -63,-122.33 -63,-122.33 l 49.72,-3.34 c -48.65,-58 -171.85,-109.47 -32.12,-124.2 139.84,-14.76 258.21,29.85 258.21,29.85 -28.66,-38.42 -72.61,-77.7 -72.61,-77.7 154.93,33.03 321.59,134.3 321.59,134.3 -114.98,-202.97 -250.61,-253.38 -250.61,-253.38 l 91.62,11.09 C 1497.51,997.23 1310.05,816.09 1310.05,816.09 l 209.09,80.57 c 1.94,-92.172 -12.86,-102.172 -12.86,-102.172 127.94,77.684 196.16,179.774 196.16,179.774 l -48.87,-5.742 c 127.79,80.68 262.96,411.03 262.96,411.03 8.22,-141.46 -17.26,-260.64 -52.36,-354.47 -53.61,-125.279 -175.81,-324.4 -447.85,-504.65 0,0 431.76,132.23 551.96,430.66 19.51,-56.051 27.53,-114.59 27.53,-114.59 108.35,179.59 121.76,335.69 121.76,335.69 l 49.43,-61.84 c 31.45,134.26 -42.22,214.53 -42.22,214.53 l 103.33,-29.78 c -15.84,42.79 -47.94,83.16 -83.45,118.01" /></g></g></svg>